<svg xmlns="http://www.w3.org/2000/svg" viewBox="0 0 1600 900" role="img" aria-label="Qefro assistant answering from a verified knowledge base">
  <defs>
    <linearGradient id="sky" x1="0" y1="0" x2="1" y2="1">
      <stop offset="0%" stop-color="#cfe8e2"/>
      <stop offset="48%" stop-color="#efe4d2"/>
      <stop offset="100%" stop-color="#d5e2ef"/>
    </linearGradient>
    <linearGradient id="panel" x1="0" y1="0" x2="0" y2="1">
      <stop offset="0%" stop-color="#ffffff" stop-opacity="0.92"/>
      <stop offset="100%" stop-color="#f4f8f6" stop-opacity="0.88"/>
    </linearGradient>
    <filter id="soft" x="-20%" y="-20%" width="140%" height="140%">
      <feGaussianBlur stdDeviation="18"/>
    </filter>
  </defs>
  <rect width="1600" height="900" fill="url(#sky)"/>
  <circle cx="1260" cy="180" r="220" fill="#0c6e6b" opacity="0.12" filter="url(#soft)"/>
  <circle cx="340" cy="620" r="260" fill="#d89a3a" opacity="0.12" filter="url(#soft)"/>
  <g transform="translate(420 160)">
    <rect width="760" height="560" rx="28" fill="url(#panel)" stroke="#10151c" stroke-opacity="0.08"/>
    <rect x="28" y="28" width="180" height="18" rx="9" fill="#0c6e6b" opacity="0.85"/>
    <rect x="28" y="70" width="280" height="12" rx="6" fill="#10151c" opacity="0.18"/>
    <rect x="28" y="120" width="420" height="74" rx="16" fill="#dff1ee"/>
    <rect x="48" y="142" width="280" height="10" rx="5" fill="#084f4d" opacity="0.75"/>
    <rect x="48" y="162" width="220" height="10" rx="5" fill="#084f4d" opacity="0.35"/>
    <rect x="310" y="220" width="422" height="92" rx="16" fill="#fff" stroke="#10151c" stroke-opacity="0.08"/>
    <rect x="332" y="244" width="300" height="10" rx="5" fill="#10151c" opacity="0.55"/>
    <rect x="332" y="266" width="250" height="10" rx="5" fill="#10151c" opacity="0.25"/>
    <rect x="28" y="340" width="480" height="110" rx="16" fill="#fff" stroke="#10151c" stroke-opacity="0.08"/>
    <rect x="48" y="364" width="340" height="10" rx="5" fill="#10151c" opacity="0.5"/>
    <rect x="48" y="386" width="390" height="10" rx="5" fill="#10151c" opacity="0.22"/>
    <rect x="48" y="408" width="260" height="10" rx="5" fill="#10151c" opacity="0.22"/>
    <rect x="28" y="480" width="704" height="48" rx="14" fill="#fff" stroke="#10151c" stroke-opacity="0.1"/>
    <circle cx="700" cy="504" r="12" fill="#0c6e6b"/>
  </g>
  <g opacity="0.35" fill="none" stroke="#10151c" stroke-width="1.2">
    <path d="M120 180c80 40 120 120 80 200"/>
    <path d="M1480 520c-90 30-140 120-110 210"/>
    <path d="M180 760c140-20 260-80 320-180"/>
  </g>
</svg>
