<svg xmlns="http://www.w3.org/2000/svg" viewBox="0 0 720 150" fill="none" aria-hidden="true" class="illust-svg">
  <circle class="i-soft" cx="40" cy="30" r="20"/>
  <rect class="i-surface-2 i-stroke" x="24" y="48" width="100" height="60" rx="14" stroke-width="2.5"/>
  <rect class="i-soft" x="40" y="66" width="40" height="8" rx="4"/>
  <rect class="i-accent-fill" x="40" y="82" width="28" height="8" rx="4"/>
  <text class="i-ink" x="74" y="40" text-anchor="middle" font-family="system-ui,sans-serif" font-size="11" font-weight="700">Website</text>
  <rect class="i-surface-2 i-stroke" x="148" y="48" width="100" height="60" rx="14" stroke-width="2.5"/>
  <circle class="i-accent-fill" cx="178" cy="78" r="12"/>
  <rect class="i-soft" x="198" y="70" width="32" height="6" rx="3"/>
  <rect class="i-soft" x="198" y="82" width="24" height="6" rx="3"/>
  <text class="i-ink" x="198" y="40" text-anchor="middle" font-family="system-ui,sans-serif" font-size="11" font-weight="700">WhatsApp</text>
  <rect class="i-surface-2 i-stroke" x="272" y="48" width="100" height="60" rx="14" stroke-width="2.5"/>
  <rect class="i-soft" x="288" y="64" width="68" height="28" rx="8"/>
  <text class="i-ink" x="322" y="40" text-anchor="middle" font-family="system-ui,sans-serif" font-size="11" font-weight="700">Portal</text>
  <rect class="i-surface-2 i-stroke" x="396" y="48" width="80" height="60" rx="14" stroke-width="2.5"/>
  <rect class="i-accent-fill" x="412" y="68" width="48" height="20" rx="6"/>
  <text class="i-ink" x="436" y="40" text-anchor="middle" font-family="system-ui,sans-serif" font-size="11" font-weight="700">API</text>
  <path class="i-accent-stroke" d="M476 78 H520" stroke-width="3" stroke-linecap="round"/>
  <polygon class="i-accent-fill" points="520,70 536,78 520,86"/>
  <rect class="i-accent-fill" x="548" y="40" width="148" height="76" rx="18"/>
  <text class="i-on-accent" x="622" y="74" text-anchor="middle" font-family="system-ui,sans-serif" font-size="14" font-weight="800">Applications</text>
  <text class="i-on-accent" x="622" y="94" text-anchor="middle" font-family="system-ui,sans-serif" font-size="10">Same tools and permissions</text>
</svg>
