<svg xmlns="http://www.w3.org/2000/svg" viewBox="0 0 420 240" fill="none" aria-hidden="true" class="illust-svg">
  <rect class="i-surface" x="12" y="12" width="396" height="216" rx="16"/>
  <circle class="i-accent-fill" cx="210" cy="120" r="28"/>
  <text class="i-on-accent" x="210" y="125" text-anchor="middle" font-family="system-ui,sans-serif" font-size="11" font-weight="700">QEFRO</text>
  <!-- systems left -->
  <rect class="i-surface-2 i-stroke" x="36" y="48" width="88" height="32" rx="8"/>
  <text class="i-ink" x="80" y="68" text-anchor="middle" font-family="system-ui,sans-serif" font-size="11" font-weight="600">ERP / CRM</text>
  <rect class="i-surface-2 i-stroke" x="36" y="96" width="88" height="32" rx="8"/>
  <text class="i-ink" x="80" y="116" text-anchor="middle" font-family="system-ui,sans-serif" font-size="11" font-weight="600">APIs</text>
  <rect class="i-surface-2 i-stroke" x="36" y="144" width="88" height="32" rx="8"/>
  <text class="i-ink" x="80" y="164" text-anchor="middle" font-family="system-ui,sans-serif" font-size="11" font-weight="600">On-prem</text>
  <!-- connector -->
  <rect class="i-accent-soft i-accent-stroke" x="148" y="100" width="72" height="40" rx="8"/>
  <text class="i-accent" x="184" y="124" text-anchor="middle" font-family="system-ui,sans-serif" font-size="10" font-weight="700">SDK</text>
  <!-- lines -->
  <path class="i-muted-stroke" d="M124 64 H148 M124 112 H148 M124 160 H148 M184 120 H182" stroke-width="1.5"/>
  <path class="i-accent-stroke" d="M220 120 H248" stroke-width="1.5"/>
  <!-- right labels -->
  <rect class="i-surface-2 i-stroke" x="248" y="72" width="132" height="28" rx="8"/>
  <text class="i-ink" x="314" y="90" text-anchor="middle" font-family="system-ui,sans-serif" font-size="11" font-weight="600">Signed /qefro</text>
  <rect class="i-surface-2 i-stroke" x="248" y="112" width="132" height="28" rx="8"/>
  <text class="i-ink" x="314" y="130" text-anchor="middle" font-family="system-ui,sans-serif" font-size="11" font-weight="600">Controlled tools</text>
  <rect class="i-surface-2 i-stroke" x="248" y="152" width="132" height="28" rx="8"/>
  <text class="i-ink" x="314" y="170" text-anchor="middle" font-family="system-ui,sans-serif" font-size="11" font-weight="600">Your systems</text>
  <path class="i-muted-stroke" d="M220 100 V160 M220 86 H248 M220 126 H248 M220 166 H248" stroke-width="1.25"/>
</svg>
